<svg id="Layer_1" data-name="Layer 1" xmlns="http://www.w3.org/2000/svg" viewBox="0 0 224 47"><defs><style>.cls-1{fill:#231f20;}.cls-2{fill:none;stroke-width:1.2px;}.cls-2,.cls-4{stroke:#1b75bb;stroke-miterlimit:10;}.cls-3,.cls-4{fill:#1b75bb;}</style></defs><title>Artboard 1</title><path class="cls-1" d="M8.62,24.93a5.1,5.1,0,0,1,5,3.35,4.67,4.67,0,0,1-1.49,5.8,5.29,5.29,0,0,1,3.18,5.07c0,3.06-2,6.15-5.92,6.15H.14V24.93ZM3.06,33H8.57c3.2,0,3.26-5.3,0-5.3H3.06Zm0,9.41H9.35a3,3,0,0,0,3-3.26,3,3,0,0,0-3-3.23H3.06Z"/><path class="cls-1" d="M20.54,35H24a3.55,3.55,0,1,0,0-7.09H19.46V45.3H16.55V24.9H24a6.32,6.32,0,0,1,6.64,6.5,6.15,6.15,0,0,1-5.27,6.24l6.44,7.66H28l-7.43-8.95Z"/><path class="cls-1" d="M42.8,27.85H39V42.36H42.8V45.3H32.28V42.36h3.79V27.85H32.28V24.93H42.8Z"/><path class="cls-1" d="M59.41,32.22c-.81-3.3-4-4.49-6.55-4.49a7.07,7.07,0,0,0-7.08,7.4c0,4.31,3.08,7.49,7.08,7.49a6.68,6.68,0,0,0,6.41-4.14H51.72V35.54h11a14.44,14.44,0,0,1-.55,3.52v0a10.23,10.23,0,0,1-9.29,6.41c-5.71,0-10-4.31-10-10.31a9.94,9.94,0,0,1,10-10.34c3.9,0,8.62,2,9.7,7.43Z"/><path class="cls-1" d="M67.25,33.53h8.63v-8.6h3V45.3h-3V36.44H67.25V45.3H64.31V24.93h2.94Z"/><path class="cls-1" d="M85.87,45.39V27.64H79.69V24.9H95v2.74H88.81V45.39Z"/><path class="cls-1" d="M142.76,45.3h-2.95V24.93H152v2.94h-9.21v5.74h8.16v3h-8.16Z"/><path class="cls-1" d="M155.52,27.73a10.3,10.3,0,0,1,14.71,0,10.48,10.48,0,0,1,0,14.74,10.3,10.3,0,0,1-14.71,0,10.48,10.48,0,0,1,0-14.74Zm12.62,2.1a7.52,7.52,0,0,0-5.28-2.22,7.3,7.3,0,0,0-5.21,2.22,7.44,7.44,0,0,0,0,10.54,7.3,7.3,0,0,0,5.21,2.22,7.5,7.5,0,0,0,5.28-12.76Z"/><path class="cls-1" d="M179.12,35h3.44a3.55,3.55,0,1,0,0-7.09h-4.51V45.3h-2.92V24.9h7.43a6.32,6.32,0,0,1,6.64,6.5,6.15,6.15,0,0,1-5.27,6.24l6.44,7.66h-3.82l-7.43-8.95Z"/><path class="cls-1" d="M192.18,27.85a9.8,9.8,0,0,1,7-3,9.55,9.55,0,0,1,9.5,7.51h-2.92a6.62,6.62,0,0,0-6.58-4.6,6.93,6.93,0,0,0-5,2.18,7.54,7.54,0,0,0,0,10.44A7,7,0,0,0,206,37.67h2.88a9.82,9.82,0,0,1-9.64,7.77,9.68,9.68,0,0,1-7-3,10.53,10.53,0,0,1,0-14.56Z"/><path class="cls-1" d="M213.19,42.36h9.47V45.3H210.21V24.93h12.42v2.94h-9.44v5.74h9.23v3h-9.23Z"/><path class="cls-2" d="M126.31,31.5a13.13,13.13,0,1,0-18.87-.2c1.8,2,4.34,3.89,4.23,6.17v.74h10.61v-1C122.33,35.15,124.59,33.35,126.31,31.5Z"/><path class="cls-3" d="M122.37,39.76a.52.52,0,0,1-.52.53h-9.62a.53.53,0,0,1-.53-.53h0a.52.52,0,0,1,.53-.52h9.62a.52.52,0,0,1,.52.52Z"/><path class="cls-3" d="M122.37,41.85a.52.52,0,0,1-.52.53h-9.62a.53.53,0,0,1-.53-.53h0a.52.52,0,0,1,.53-.52h9.62a.52.52,0,0,1,.52.52Z"/><path class="cls-3" d="M121.71,43.87a.46.46,0,0,1-.46.46h-8.39a.45.45,0,0,1-.46-.46h0a.46.46,0,0,1,.46-.46h8.39a.47.47,0,0,1,.46.46Z"/><path class="cls-4" d="M114.09,45.36a4.13,4.13,0,0,0,5.76,0Z"/><path class="cls-4" d="M117.55,4.87a.58.58,0,0,1-.58.58h0a.58.58,0,0,1-.58-.58V1A.58.58,0,0,1,117,.41h0a.58.58,0,0,1,.58.58Z"/><path class="cls-4" d="M109,6.86a.59.59,0,0,1-.21.8h0a.59.59,0,0,1-.8-.22L106,4.08a.58.58,0,0,1,.21-.79h0a.58.58,0,0,1,.8.21Z"/><path class="cls-4" d="M102.53,12.87a.59.59,0,0,1,.21.8h0a.57.57,0,0,1-.79.21l-3.36-1.94a.58.58,0,0,1-.22-.79h0a.59.59,0,0,1,.8-.22Z"/><path class="cls-4" d="M135.36,31.83a.57.57,0,0,1,.21.79h0a.58.58,0,0,1-.79.22l-3.36-1.94a.59.59,0,0,1-.22-.8h0a.59.59,0,0,1,.8-.21Z"/><path class="cls-4" d="M100,21.3a.58.58,0,0,1,.58.59h0a.58.58,0,0,1-.58.58H96.08a.58.58,0,0,1-.58-.58h0a.58.58,0,0,1,.58-.59Z"/><path class="cls-4" d="M137.87,21.3a.58.58,0,0,1,.58.59h0a.58.58,0,0,1-.58.58H134a.58.58,0,0,1-.59-.58h0a.58.58,0,0,1,.59-.59Z"/><path class="cls-4" d="M102,29.89a.57.57,0,0,1,.79.21h0a.59.59,0,0,1-.21.8l-3.36,1.94a.59.59,0,0,1-.8-.22h0a.58.58,0,0,1,.22-.79Z"/><path class="cls-4" d="M134.78,10.93a.58.58,0,0,1,.79.22h0a.57.57,0,0,1-.21.79L132,13.88a.59.59,0,0,1-.8-.21h0a.59.59,0,0,1,.22-.8Z"/><path class="cls-4" d="M126.91,3.5a.58.58,0,0,1,.8-.21h0a.57.57,0,0,1,.21.79L126,7.44a.58.58,0,0,1-.79.22h0a.58.58,0,0,1-.21-.8Z"/><path class="cls-4" d="M117.17,17.9a2.48,2.48,0,1,1,2.53-2.48A2.51,2.51,0,0,1,117.17,17.9Z"/><path class="cls-4" d="M114.67,18.23h5A2.08,2.08,0,0,1,121.81,20c0,.95-.37,7.08-.37,7.08a.81.81,0,0,1-.89.72.71.71,0,0,1-.24-.06L120,37.11a1.09,1.09,0,0,1-1.13,1A1.14,1.14,0,0,1,117.76,37l-.31-7.19c0-.11-.06-.57-.28-.57s-.27.46-.28.57L116.58,37a1.14,1.14,0,0,1-1.07,1.12,1.09,1.09,0,0,1-1.13-1L114,27.7a.71.71,0,0,1-.24.06.81.81,0,0,1-.89-.72s-.37-6.13-.37-7.08A2.08,2.08,0,0,1,114.67,18.23Z"/></svg>